<svg viewBox="0 0 708 400" xmlns="http://www.w3.org/2000/svg"><g><g><g><g><g><line x1="30.78125" y1="377" x2="25.78125" y2="377" style="visibility: inherit;" fill="rgb(0, 0, 0)" stroke="rgb(204, 204, 204)" stroke-width="1px"></line><line x1="30.78125" y1="339.3" x2="25.78125" y2="339.3" style="visibility: inherit;" fill="rgb(0, 0, 0)" stroke="rgb(204, 204, 204)" stroke-width="1px"></line><line x1="30.78125" y1="301.6" x2="25.78125" y2="301.6" style="visibility: inherit;" fill="rgb(0, 0, 0)" stroke="rgb(204, 204, 204)" stroke-width="1px"></line><line x1="30.78125" y1="263.9" x2="25.78125" y2="263.9" style="visibility: inherit;" fill="rgb(0, 0, 0)" stroke="rgb(204, 204, 204)" stroke-width="1px"></line><line x1="30.78125" y1="226.2" x2="25.78125" y2="226.2" style="visibility: inherit;" fill="rgb(0, 0, 0)" stroke="rgb(204, 204, 204)" stroke-width="1px"></line><line x1="30.78125" y1="188.5" x2="25.78125" y2="188.5" style="visibility: inherit;" fill="rgb(0, 0, 0)" stroke="rgb(204, 204, 204)" stroke-width="1px"></line><line x1="30.78125" y1="150.8" x2="25.78125" y2="150.8" style="visibility: inherit;" fill="rgb(0, 0, 0)" stroke="rgb(204, 204, 204)" stroke-width="1px"></line><line x1="30.78125" y1="113.10000000000002" x2="25.78125" y2="113.10000000000002" style="visibility: inherit;" fill="rgb(0, 0, 0)" stroke="rgb(204, 204, 204)" stroke-width="1px"></line><line x1="30.78125" y1="75.39999999999998" x2="25.78125" y2="75.39999999999998" style="visibility: inherit;" fill="rgb(0, 0, 0)" stroke="rgb(204, 204, 204)" stroke-width="1px"></line><line x1="30.78125" y1="37.69999999999999" x2="25.78125" y2="37.69999999999999" style="visibility: inherit;" fill="rgb(0, 0, 0)" stroke="rgb(204, 204, 204)" stroke-width="1px"></line><line x1="30.78125" y1="0" x2="25.78125" y2="0" style="visibility: inherit;" fill="rgb(0, 0, 0)" stroke="rgb(204, 204, 204)" stroke-width="1px"></line></g><g transform="translate(20.78125, 0)"><text x="0" y="377" dx="0em" dy="0.3em" style="text-anchor: end; visibility: hidden; font-family: Roboto, sans-serif; font-size: 12px; font-weight: 200;" fill="rgb(255, 255, 255)" stroke="none" stroke-width="1px">1</text><text x="0" y="339.3" dx="0em" dy="0.3em" style="text-anchor: end; visibility: inherit; font-family: Roboto, sans-serif; font-size: 12px; font-weight: 200;" fill="rgb(255, 255, 255)" stroke="none" stroke-width="1px">2</text><text x="0" y="301.6" dx="0em" dy="0.3em" style="text-anchor: end; visibility: inherit; font-family: Roboto, sans-serif; font-size: 12px; font-weight: 200;" fill="rgb(255, 255, 255)" stroke="none" stroke-width="1px">3</text><text x="0" y="263.9" dx="0em" dy="0.3em" style="text-anchor: end; visibility: inherit; font-family: Roboto, sans-serif; font-size: 12px; font-weight: 200;" fill="rgb(255, 255, 255)" stroke="none" stroke-width="1px">4</text><text x="0" y="226.2" dx="0em" dy="0.3em" style="text-anchor: end; visibility: inherit; font-family: Roboto, sans-serif; font-size: 12px; font-weight: 200;" fill="rgb(255, 255, 255)" stroke="none" stroke-width="1px">5</text><text x="0" y="188.5" dx="0em" dy="0.3em" style="text-anchor: end; visibility: inherit; font-family: Roboto, sans-serif; font-size: 12px; font-weight: 200;" fill="rgb(255, 255, 255)" stroke="none" stroke-width="1px">6</text><text x="0" y="150.8" dx="0em" dy="0.3em" style="text-anchor: end; visibility: inherit; font-family: Roboto, sans-serif; font-size: 12px; font-weight: 200;" fill="rgb(255, 255, 255)" stroke="none" stroke-width="1px">7</text><text x="0" y="113.10000000000002" dx="0em" dy="0.3em" style="text-anchor: end; visibility: inherit; font-family: Roboto, sans-serif; font-size: 12px; font-weight: 200;" fill="rgb(255, 255, 255)" stroke="none" stroke-width="1px">8</text><text x="0" y="75.39999999999998" dx="0em" dy="0.3em" style="text-anchor: end; visibility: inherit; font-family: Roboto, sans-serif; font-size: 12px; font-weight: 200;" fill="rgb(255, 255, 255)" stroke="none" stroke-width="1px">9</text><text x="0" y="37.69999999999999" dx="0em" dy="0.3em" style="text-anchor: end; visibility: inherit; font-family: Roboto, sans-serif; font-size: 12px; font-weight: 200;" fill="rgb(255, 255, 255)" stroke="none" stroke-width="1px">10</text><text x="0" y="0" dx="0em" dy="0.3em" style="text-anchor: end; visibility: hidden; font-family: Roboto, sans-serif; font-size: 12px; font-weight: 200;" fill="rgb(255, 255, 255)" stroke="none" stroke-width="1px">11</text></g><line x1="30.78125" y1="0" x2="30.78125" y2="377" fill="rgb(0, 0, 0)" stroke="rgb(204, 204, 204)" stroke-width="1px"></line></g></g><g transform="translate(30, 0)" clip-path="url(#clip_0)"><clipPath id="clip_0"><rect width="677" height="377"></rect></clipPath><g><g><g><line x1="0" y1="0" x2="0" y2="377" fill="rgb(0, 0, 0)" stroke="rgb(189, 189, 189)" stroke-width="1px" opacity="0.25"></line><line x1="56.43489583333333" y1="0" x2="56.43489583333333" y2="377" fill="rgb(0, 0, 0)" stroke="rgb(189, 189, 189)" stroke-width="1px" opacity="0.25"></line><line x1="112.86979166666666" y1="0" x2="112.86979166666666" y2="377" fill="rgb(0, 0, 0)" stroke="rgb(189, 189, 189)" stroke-width="1px" opacity="0.25"></line><line x1="169.3046875" y1="0" x2="169.3046875" y2="377" fill="rgb(0, 0, 0)" stroke="rgb(189, 189, 189)" stroke-width="1px" opacity="0.25"></line><line x1="225.73958333333331" y1="0" x2="225.73958333333331" y2="377" fill="rgb(0, 0, 0)" stroke="rgb(189, 189, 189)" stroke-width="1px" opacity="0.25"></line><line x1="282.1744791666667" y1="0" x2="282.1744791666667" y2="377" fill="rgb(0, 0, 0)" stroke="rgb(189, 189, 189)" stroke-width="1px" opacity="0.25"></line><line x1="338.609375" y1="0" x2="338.609375" y2="377" fill="rgb(0, 0, 0)" stroke="rgb(189, 189, 189)" stroke-width="1px" opacity="0.25"></line><line x1="395.04427083333337" y1="0" x2="395.04427083333337" y2="377" fill="rgb(0, 0, 0)" stroke="rgb(189, 189, 189)" stroke-width="1px" opacity="0.25"></line><line x1="451.47916666666663" y1="0" x2="451.47916666666663" y2="377" fill="rgb(0, 0, 0)" stroke="rgb(189, 189, 189)" stroke-width="1px" opacity="0.25"></line><line x1="507.9140625" y1="0" x2="507.9140625" y2="377" fill="rgb(0, 0, 0)" stroke="rgb(189, 189, 189)" stroke-width="1px" opacity="0.25"></line><line x1="564.3489583333334" y1="0" x2="564.3489583333334" y2="377" fill="rgb(0, 0, 0)" stroke="rgb(189, 189, 189)" stroke-width="1px" opacity="0.25"></line><line x1="620.7838541666666" y1="0" x2="620.7838541666666" y2="377" fill="rgb(0, 0, 0)" stroke="rgb(189, 189, 189)" stroke-width="1px" opacity="0.25"></line><line x1="677.21875" y1="0" x2="677.21875" y2="377" fill="rgb(0, 0, 0)" stroke="rgb(189, 189, 189)" stroke-width="1px" opacity="0.25"></line></g><g><line x1="0" y1="377" x2="677.21875" y2="377" fill="rgb(0, 0, 0)" stroke="rgb(189, 189, 189)" stroke-width="1px" opacity="0.25"></line><line x1="0" y1="339.3" x2="677.21875" y2="339.3" fill="rgb(0, 0, 0)" stroke="rgb(189, 189, 189)" stroke-width="1px" opacity="0.25"></line><line x1="0" y1="301.6" x2="677.21875" y2="301.6" fill="rgb(0, 0, 0)" stroke="rgb(189, 189, 189)" stroke-width="1px" opacity="0.25"></line><line x1="0" y1="263.9" x2="677.21875" y2="263.9" fill="rgb(0, 0, 0)" stroke="rgb(189, 189, 189)" stroke-width="1px" opacity="0.25"></line><line x1="0" y1="226.2" x2="677.21875" y2="226.2" fill="rgb(0, 0, 0)" stroke="rgb(189, 189, 189)" stroke-width="1px" opacity="0.25"></line><line x1="0" y1="188.5" x2="677.21875" y2="188.5" fill="rgb(0, 0, 0)" stroke="rgb(189, 189, 189)" stroke-width="1px" opacity="0.25"></line><line x1="0" y1="150.8" x2="677.21875" y2="150.8" fill="rgb(0, 0, 0)" stroke="rgb(189, 189, 189)" stroke-width="1px" opacity="0.25"></line><line x1="0" y1="113.10000000000002" x2="677.21875" y2="113.10000000000002" fill="rgb(0, 0, 0)" stroke="rgb(189, 189, 189)" stroke-width="1px" opacity="0.25"></line><line x1="0" y1="75.39999999999998" x2="677.21875" y2="75.39999999999998" fill="rgb(0, 0, 0)" stroke="rgb(189, 189, 189)" stroke-width="1px" opacity="0.25"></line><line x1="0" y1="37.69999999999999" x2="677.21875" y2="37.69999999999999" fill="rgb(0, 0, 0)" stroke="rgb(189, 189, 189)" stroke-width="1px" opacity="0.25"></line><line x1="0" y1="0" x2="677.21875" y2="0" fill="rgb(0, 0, 0)" stroke="rgb(189, 189, 189)" stroke-width="1px" opacity="0.25"></line></g></g></g><g><g><line x1="0" y1="414.70000000000005" x2="677.21875" y2="414.70000000000005" fill="rgb(0, 0, 0)" stroke="rgb(153, 153, 153)" stroke-width="1.5px"></line></g></g><g><g><line x1="56.43489583333333" y1="0" x2="56.43489583333333" y2="377" fill="rgb(0, 0, 0)" stroke="rgb(153, 153, 153)" stroke-width="1.5px"></line></g></g><g><g><g><g><g><path stroke="rgb(255, 112, 67)" stroke-width="2px" d="M84.65234375,-2.590461470202179L90.29583333333333,20.381504393161745L95.93932291666667,39.19055001446656L101.5828125,54.30184260162689L107.22630208333332,66.26953088887333L112.86979166666666,75.63304851563002L118.51328124999999,82.89684616850441L124.15677083333333,88.51712596078899L129.80026041666667,92.8773007192764L135.44375,96.26965466610599L141.08723958333334,98.94100556244724L146.73072916666666,101.08776087876723L152.37421875,102.86138455316848L158.01770833333333,104.38015293144302L163.66119791666668,105.74273201703791L169.3046875,107.02503606887655L174.94817708333335,108.29048606983619L180.59166666666667,109.60112877042876L186.23515625000002,111.01922609720364L191.87864583333334,112.61245635081256L197.52213541666669,114.4564298014008L203.165625,116.65245575832927L208.80911458333335,119.3403453390222L214.45260416666665,122.71076698572472L220.09609375,127.03725913358159L225.73958333333331,132.67820164451157L231.38307291666666,139.98305259377673L237.02656249999998,149.05435248467154L242.67005208333333,159.50933356292475L248.31354166666665,170.59526897726116L253.95703125,181.58562919232364L259.60052083333335,191.98979679308684L265.24401041666664,201.50488752270766L270.8875,209.98714492457643L276.53098958333334,217.3965513450327L282.1744791666667,223.84379246038284L287.81796875,229.4902473054044L293.4614583333333,234.45305703889017L299.1049479166667,238.8665611495047L304.7484375,242.8705140639011L310.3919270833333,246.54534566253858L316.03541666666666,249.95044508389276L321.67890625,253.16918489713578L327.32239583333336,256.24876269692606L332.96588541666665,259.233985325105L338.609375,262.15344108369743L344.2528645833333,265.034353535349L349.8963541666667,267.88762064515873L355.53984375,270.7487381585846L361.18333333333334,273.6368822651184L366.82682291666663,276.52930216295164L372.47031250000003,279.4594644612243L378.1138020833333,282.3763869897235L383.7572916666667,285.27998700950826L389.40078124999997,288.1363538504501L395.04427083333337,290.9112774324931L400.68776041666666,293.56695244506113L406.33125,296.05082551595643L411.9747395833333,298.3558561608617L417.6182291666667,300.463348796691L423.26171875,302.39117966337534L428.9052083333333,304.13062364961826L434.5486979166667,305.7046692031987L440.1921875,307.1430296122055L445.83567708333334,308.46690528983L451.47916666666663,309.7118937098629L457.12265625000003,310.88715073130413L462.7661458333333,312.01110954202346L468.4096354166667,313.08811753223614L474.05312499999997,314.12471285599634L479.69661458333337,315.1253469225059L485.34010416666666,316.086369948166L490.98359375,317.0159035328492L496.6270833333333,317.92744229098946L502.2705729166667,318.79983480132097L507.9140625,319.64443592641635L513.5575520833333,320.4737464309566L519.2010416666667,321.2855017972489L524.84453125,322.0764917083084L530.4880208333333,322.85486774608495L536.1315104166666,323.61971436598895L541.775,324.3675771967113L547.4184895833333,325.1092657623017L553.0619791666667,325.8399799667194L558.70546875,326.55288846030203L564.3489583333334,327.25881674012163L569.9924479166667,327.9467291672267L575.6359375,328.6299657535098L581.2794270833333,329.2980719680513L586.9229166666667,329.9569885036305L592.56640625,330.5897862685296L598.2098958333333,331.2243034894808L603.8533854166667,331.82820968959L609.496875,332.41752080162325L615.1403645833333,332.9968200829027L620.7838541666666,333.55296243586525" style="fill: none;" fill="none"></path></g></g></g></g><g opacity="0.2"><g><g><g><path stroke="rgb(255, 112, 67)" stroke-width="2px" d="M73.36536458333333,-27.21544971466063L79.00885416666667,7.592125415802002L84.65234375,33.24561033248903L90.29583333333333,52.16000308990477L95.93932291666667,66.08778619766235L101.5828125,76.33425226211546L107.22630208333332,83.91954650878904L112.86979166666666,89.53678092956545L118.51328124999999,93.72666053771974L124.15677083333333,96.91696033477785L129.80026041666667,99.40332612991335L135.44375,101.3515396118164L141.08723958333334,102.94489183425901L146.73072916666666,104.30637979507446L152.37421875,105.52106952667236L158.01770833333333,106.65791988372803L163.66119791666668,107.78639307022092L169.3046875,108.94837493896483L174.94817708333335,110.18859167098998L180.59166666666667,111.56704969406127L186.23515625000002,113.14634408950803L191.87864583333334,115.0022828578949L197.52213541666669,117.22237687110902L203.165625,119.94648532867433L208.80911458333335,123.37217283248901L214.45260416666665,127.7663942813873L220.09609375,133.52699337005618L225.73958333333331,141.13961229324343L231.38307291666666,150.94032659530637L237.02656249999998,162.66130051612856L242.67005208333333,175.19180393218994L248.31354166666665,187.22417130470274L253.95703125,198.07116904258726L259.60052083333335,207.5960479259491L265.24401041666664,215.77752346992492L270.8875,222.7105309486389L276.53098958333334,228.51066093444825L282.1744791666667,233.51465411186217L287.81796875,237.959929561615L293.4614583333333,241.8972716331482L299.1049479166667,245.4868173122406L304.7484375,248.8764434337616L310.3919270833333,252.05759305953978L316.03541666666666,255.05809421539306L321.67890625,257.9972946166992L327.32239583333336,260.8681293964386L332.96588541666665,263.711819267273L338.609375,266.5326247215271L344.2528645833333,269.3557222127914L349.8963541666667,272.1675213098526L355.53984375,275.04041442871096L361.18333333333334,277.9690984249115L366.82682291666663,280.867932009697L372.47031250000003,283.85470790863036L378.1138020833333,286.7517707824707L383.7572916666667,289.6353870391846L389.40078124999997,292.42090411186217L395.04427083333337,295.07366280555726L400.68776041666666,297.550464963913L406.33125,299.7766351222992L411.9747395833333,301.8134021282196L417.6182291666667,303.6245877504349L423.26171875,305.2829259634018L428.9052083333333,306.7397896289825L434.5486979166667,308.06573753356935L440.1921875,309.30057022571566L445.83567708333334,310.4527188062668L451.47916666666663,311.5793763399124L457.12265625000003,312.6500362634659L462.7661458333333,313.6970477581024L468.4096354166667,314.7036295175552L474.05312499999997,315.67960584163666L479.69661458333337,316.6262980222702L485.34010416666666,317.5279044866562L490.98359375,318.410203909874L496.6270833333333,319.2947504281998L502.2705729166667,320.10842356681826L507.9140625,320.91133761405945L513.5575520833333,321.717712187767L519.2010416666667,322.5031348466873L524.84453125,323.2629765748978L530.4880208333333,324.0224318027496L536.1315104166666,324.766984295845L541.775,325.4893714427948L547.4184895833333,326.22179861068724L553.0619791666667,326.9360512733459L558.70546875,327.622251200676L564.3489583333334,328.31770915985106L569.9924479166667,328.9785978078842L575.6359375,329.65482063293456L581.2794270833333,330.3002312898636L586.9229166666667,330.9453633069992L592.56640625,331.5389829158783L598.2098958333333,332.1760793209076L603.8533854166667,332.7340689897537L609.496875,333.30148746967313L615.1403645833333,333.8657690048218L620.7838541666666,334.38717596530915" style="fill: none;" fill="none"></path></g></g></g></g></g></g><g transform="translate(30, 377)" clip-path="url(#clip_1)"><clipPath id="clip_1"><rect width="677" height="23"></rect></clipPath><g><g><line x1="0" y1="0" x2="0" y2="5" style="visibility: inherit;" fill="rgb(0, 0, 0)" stroke="rgb(204, 204, 204)" stroke-width="1px"></line><line x1="56.43489583333333" y1="0" x2="56.43489583333333" y2="5" style="visibility: inherit;" fill="rgb(0, 0, 0)" stroke="rgb(204, 204, 204)" stroke-width="1px"></line><line x1="112.86979166666666" y1="0" x2="112.86979166666666" y2="5" style="visibility: inherit;" fill="rgb(0, 0, 0)" stroke="rgb(204, 204, 204)" stroke-width="1px"></line><line x1="169.3046875" y1="0" x2="169.3046875" y2="5" style="visibility: inherit;" fill="rgb(0, 0, 0)" stroke="rgb(204, 204, 204)" stroke-width="1px"></line><line x1="225.73958333333331" y1="0" x2="225.73958333333331" y2="5" style="visibility: inherit;" fill="rgb(0, 0, 0)" stroke="rgb(204, 204, 204)" stroke-width="1px"></line><line x1="282.1744791666667" y1="0" x2="282.1744791666667" y2="5" style="visibility: inherit;" fill="rgb(0, 0, 0)" stroke="rgb(204, 204, 204)" stroke-width="1px"></line><line x1="338.609375" y1="0" x2="338.609375" y2="5" style="visibility: inherit;" fill="rgb(0, 0, 0)" stroke="rgb(204, 204, 204)" stroke-width="1px"></line><line x1="395.04427083333337" y1="0" x2="395.04427083333337" y2="5" style="visibility: inherit;" fill="rgb(0, 0, 0)" stroke="rgb(204, 204, 204)" stroke-width="1px"></line><line x1="451.47916666666663" y1="0" x2="451.47916666666663" y2="5" style="visibility: inherit;" fill="rgb(0, 0, 0)" stroke="rgb(204, 204, 204)" stroke-width="1px"></line><line x1="507.9140625" y1="0" x2="507.9140625" y2="5" style="visibility: inherit;" fill="rgb(0, 0, 0)" stroke="rgb(204, 204, 204)" stroke-width="1px"></line><line x1="564.3489583333334" y1="0" x2="564.3489583333334" y2="5" style="visibility: inherit;" fill="rgb(0, 0, 0)" stroke="rgb(204, 204, 204)" stroke-width="1px"></line><line x1="620.7838541666666" y1="0" x2="620.7838541666666" y2="5" style="visibility: inherit;" fill="rgb(0, 0, 0)" stroke="rgb(204, 204, 204)" stroke-width="1px"></line><line x1="677.21875" y1="0" x2="677.21875" y2="5" style="visibility: inherit;" fill="rgb(0, 0, 0)" stroke="rgb(204, 204, 204)" stroke-width="1px"></line></g><g transform="translate(0, 8)"><text x="0" y="0" dx="0em" dy="0.95em" style="text-anchor: middle; visibility: hidden; font-family: Roboto, sans-serif; font-size: 12px; font-weight: 200;" fill="rgb(255, 255, 255)" stroke="none" stroke-width="1px">-10</text><text x="56.43489583333333" y="0" dx="0em" dy="0.95em" style="text-anchor: middle; visibility: inherit; font-family: Roboto, sans-serif; font-size: 12px; font-weight: 200;" fill="rgb(255, 255, 255)" stroke="none" stroke-width="1px">0</text><text x="112.86979166666666" y="0" dx="0em" dy="0.95em" style="text-anchor: middle; visibility: inherit; font-family: Roboto, sans-serif; font-size: 12px; font-weight: 200;" fill="rgb(255, 255, 255)" stroke="none" stroke-width="1px">10</text><text x="169.3046875" y="0" dx="0em" dy="0.95em" style="text-anchor: middle; visibility: inherit; font-family: Roboto, sans-serif; font-size: 12px; font-weight: 200;" fill="rgb(255, 255, 255)" stroke="none" stroke-width="1px">20</text><text x="225.73958333333331" y="0" dx="0em" dy="0.95em" style="text-anchor: middle; visibility: inherit; font-family: Roboto, sans-serif; font-size: 12px; font-weight: 200;" fill="rgb(255, 255, 255)" stroke="none" stroke-width="1px">30</text><text x="282.1744791666667" y="0" dx="0em" dy="0.95em" style="text-anchor: middle; visibility: inherit; font-family: Roboto, sans-serif; font-size: 12px; font-weight: 200;" fill="rgb(255, 255, 255)" stroke="none" stroke-width="1px">40</text><text x="338.609375" y="0" dx="0em" dy="0.95em" style="text-anchor: middle; visibility: inherit; font-family: Roboto, sans-serif; font-size: 12px; font-weight: 200;" fill="rgb(255, 255, 255)" stroke="none" stroke-width="1px">50</text><text x="395.04427083333337" y="0" dx="0em" dy="0.95em" style="text-anchor: middle; visibility: inherit; font-family: Roboto, sans-serif; font-size: 12px; font-weight: 200;" fill="rgb(255, 255, 255)" stroke="none" stroke-width="1px">60</text><text x="451.47916666666663" y="0" dx="0em" dy="0.95em" style="text-anchor: middle; visibility: inherit; font-family: Roboto, sans-serif; font-size: 12px; font-weight: 200;" fill="rgb(255, 255, 255)" stroke="none" stroke-width="1px">70</text><text x="507.9140625" y="0" dx="0em" dy="0.95em" style="text-anchor: middle; visibility: inherit; font-family: Roboto, sans-serif; font-size: 12px; font-weight: 200;" fill="rgb(255, 255, 255)" stroke="none" stroke-width="1px">80</text><text x="564.3489583333334" y="0" dx="0em" dy="0.95em" style="text-anchor: middle; visibility: inherit; font-family: Roboto, sans-serif; font-size: 12px; font-weight: 200;" fill="rgb(255, 255, 255)" stroke="none" stroke-width="1px">90</text><text x="620.7838541666666" y="0" dx="0em" dy="0.95em" style="text-anchor: middle; visibility: inherit; font-family: Roboto, sans-serif; font-size: 12px; font-weight: 200;" fill="rgb(255, 255, 255)" stroke="none" stroke-width="1px">100</text><text x="677.21875" y="0" dx="0em" dy="0.95em" style="text-anchor: middle; visibility: hidden; font-family: Roboto, sans-serif; font-size: 12px; font-weight: 200;" fill="rgb(255, 255, 255)" stroke="none" stroke-width="1px">110</text></g><line x1="0" y1="0" x2="677.21875" y2="0" fill="rgb(0, 0, 0)" stroke="rgb(204, 204, 204)" stroke-width="1px"></line></g></g></g></g></svg>